<?xml version="1.0" encoding="utf-8"?>
<svg id="master-artboard" viewBox="0 0 1241.851806640625 223.78338623046875" version="1.1" xmlns="http://www.w3.org/2000/svg" x="0px" y="0px" style="enable-background:new 0 0 336 235.2;" width="1241.851806640625px" height="223.78338623046875px"><defs><radialGradient id="gradient-0" gradientUnits="objectBoundingBox" cx="0.5" cy="0.5" r="0.5">
                <stop offset="0" style="stop-color: #000000"/>
                <stop offset="1" style="stop-color: #000000"/>
              </radialGradient><radialGradient id="gradient-1" gradientUnits="objectBoundingBox" cx="0.5" cy="0.5" r="0.5">
                <stop offset="0" style="stop-color: #ff3300"/>
                <stop offset="1" style="stop-color: #991f00"/>
              </radialGradient><radialGradient id="gradient-2" gradientUnits="objectBoundingBox" cx="0.5" cy="0.5" r="0.5">
                <stop offset="0" style="stop-color: #000000"/>
                <stop offset="1" style="stop-color: #000000"/>
              </radialGradient><radialGradient id="gradient-3" gradientUnits="objectBoundingBox" cx="0.5" cy="0.5" r="0.5">
                <stop offset="0" style="stop-color: #02a6ff"/>
                <stop offset="1" style="stop-color: #00659b"/>
              </radialGradient><radialGradient id="gradient-4" gradientUnits="objectBoundingBox" cx="0.5" cy="0.5" r="0.5">
                <stop offset="0" style="stop-color: #000000"/>
                <stop offset="1" style="stop-color: #000000"/>
              </radialGradient><radialGradient id="gradient-5" gradientUnits="objectBoundingBox" cx="0.5" cy="0.5" r="0.5">
                <stop offset="0" style="stop-color: #ff3300"/>
                <stop offset="1" style="stop-color: #991f00"/>
              </radialGradient><radialGradient id="gradient-6" gradientUnits="objectBoundingBox" cx="0.5" cy="0.5" r="0.5">
                <stop offset="0" style="stop-color: #000000"/>
                <stop offset="1" style="stop-color: #000000"/>
              </radialGradient><radialGradient id="gradient-7" gradientUnits="objectBoundingBox" cx="0.5" cy="0.5" r="0.5">
                <stop offset="0" style="stop-color: #02a6ff"/>
                <stop offset="1" style="stop-color: #00659b"/>
              </radialGradient><radialGradient id="gradient-8" gradientUnits="objectBoundingBox" cx="0.5" cy="0.5" r="0.5">
                <stop offset="0" style="stop-color: #000000"/>
                <stop offset="1" style="stop-color: #000000"/>
              </radialGradient><radialGradient id="gradient-9" gradientUnits="objectBoundingBox" cx="0.5" cy="0.5" r="0.5">
                <stop offset="0" style="stop-color: #ff3300"/>
                <stop offset="1" style="stop-color: #991f00"/>
              </radialGradient><radialGradient id="gradient-10" gradientUnits="objectBoundingBox" cx="0.5" cy="0.5" r="0.5">
                <stop offset="0" style="stop-color: #000000"/>
                <stop offset="1" style="stop-color: #000000"/>
              </radialGradient><radialGradient id="gradient-11" gradientUnits="objectBoundingBox" cx="0.5" cy="0.5" r="0.5">
                <stop offset="0" style="stop-color: #02a6ff"/>
                <stop offset="1" style="stop-color: #00659b"/>
              </radialGradient><radialGradient id="gradient-12" gradientUnits="objectBoundingBox" cx="0.5" cy="0.5" r="0.5">
                <stop offset="0" style="stop-color: #000000"/>
                <stop offset="1" style="stop-color: #000000"/>
              </radialGradient><radialGradient id="gradient-13" gradientUnits="objectBoundingBox" cx="0.5" cy="0.5" r="0.5">
                <stop offset="0" style="stop-color: #ff3300"/>
                <stop offset="1" style="stop-color: #991f00"/>
              </radialGradient><radialGradient id="gradient-14" gradientUnits="objectBoundingBox" cx="0.5" cy="0.5" r="0.5">
                <stop offset="0" style="stop-color: #000000"/>
                <stop offset="1" style="stop-color: #000000"/>
              </radialGradient><radialGradient id="gradient-15" gradientUnits="objectBoundingBox" cx="0.5" cy="0.5" r="0.5">
                <stop offset="0" style="stop-color: #02a6ff"/>
                <stop offset="1" style="stop-color: #00659b"/>
              </radialGradient><radialGradient id="gradient-16" gradientUnits="objectBoundingBox" cx="0.5" cy="0.5" r="0.5">
                <stop offset="0" style="stop-color: #000000"/>
                <stop offset="1" style="stop-color: #000000"/>
              </radialGradient><radialGradient id="gradient-17" gradientUnits="objectBoundingBox" cx="0.5" cy="0.5" r="0.5">
                <stop offset="0" style="stop-color: #ff3300"/>
                <stop offset="1" style="stop-color: #991f00"/>
              </radialGradient><radialGradient id="gradient-18" gradientUnits="objectBoundingBox" cx="0.5" cy="0.5" r="0.5">
                <stop offset="0" style="stop-color: #000000"/>
                <stop offset="1" style="stop-color: #000000"/>
              </radialGradient><radialGradient id="gradient-19" gradientUnits="objectBoundingBox" cx="0.5" cy="0.5" r="0.5">
                <stop offset="0" style="stop-color: #02a6ff"/>
                <stop offset="1" style="stop-color: #00659b"/>
              </radialGradient><radialGradient id="gradient-20" gradientUnits="objectBoundingBox" cx="0.5" cy="0.5" r="0.5">
                <stop offset="0" style="stop-color: #000000"/>
                <stop offset="1" style="stop-color: #000000"/>
              </radialGradient><radialGradient id="gradient-21" gradientUnits="objectBoundingBox" cx="0.5" cy="0.5" r="0.5">
                <stop offset="0" style="stop-color: #ff3300"/>
                <stop offset="1" style="stop-color: #991f00"/>
              </radialGradient><radialGradient id="gradient-22" gradientUnits="objectBoundingBox" cx="0.5" cy="0.5" r="0.5">
                <stop offset="0" style="stop-color: #66cc33"/>
                <stop offset="1" style="stop-color: #3d7a1f"/>
              </radialGradient><radialGradient id="gradient-23" gradientUnits="objectBoundingBox" cx="0.5" cy="0.5" r="0.5">
                <stop offset="0" style="stop-color: #ffcc00"/>
                <stop offset="1" style="stop-color: #997a00"/>
              </radialGradient><radialGradient id="gradient-24" gradientUnits="objectBoundingBox" cx="0.5" cy="0.5" r="0.5">
                <stop offset="0" style="stop-color: #02a6ff"/>
                <stop offset="1" style="stop-color: #00659b"/>
              </radialGradient><radialGradient id="gradient-25" gradientUnits="objectBoundingBox" cx="0.9517673254013062" cy="-1.2490507364273071" r="0.5" gradientTransform="matrix(-0.028691727242581067, 18.053349225660845, -0.9875113439323613, -0.0016081859543231047, 1.0080990412613922, -8.525869265950057)">
                <stop offset="0" style="stop-color: #000000"/>
                <stop offset="1" style="stop-color: #000000"/>
              </radialGradient><radialGradient id="gradient-26" gradientUnits="objectBoundingBox" cx="0.9056814312934875" cy="2.6695454120635986" r="0.5" gradientTransform="matrix(13.941665768623352, 49.85971641540527, -1.3019570112228394, 0.20571529865264893, -5.819855868816376, -24.532709181308746)">
                <stop offset="0" style="stop-color: #000000"/>
                <stop offset="1" style="stop-color: #000000"/>
              </radialGradient><radialGradient id="gradient-27" gradientUnits="objectBoundingBox" cx="0.5" cy="0.5" r="0.5">
                <stop offset="0" style="stop-color: #000000"/>
                <stop offset="1" style="stop-color: #000000"/>
              </radialGradient><radialGradient id="gradient-28" gradientUnits="objectBoundingBox" cx="0.5" cy="0.5" r="0.5">
                <stop offset="0" style="stop-color: #000000"/>
                <stop offset="1" style="stop-color: #000000"/>
              </radialGradient><radialGradient id="gradient-29" gradientUnits="objectBoundingBox" cx="0.5" cy="0.5" r="0.5">
                <stop offset="0" style="stop-color: #000000"/>
                <stop offset="1" style="stop-color: #000000"/>
              </radialGradient><radialGradient id="gradient-30" gradientUnits="objectBoundingBox" cx="0.5" cy="0.5" r="0.5">
                <stop offset="0" style="stop-color: #000000"/>
                <stop offset="1" style="stop-color: #000000"/>
              </radialGradient><radialGradient id="gradient-31" gradientUnits="objectBoundingBox" cx="0.5" cy="0.5" r="0.5">
                <stop offset="0" style="stop-color: #000000"/>
                <stop offset="1" style="stop-color: #000000"/>
              </radialGradient><radialGradient id="gradient-32" gradientUnits="objectBoundingBox" cx="0.5" cy="0.5" r="0.5">
                <stop offset="0" style="stop-color: #000000"/>
                <stop offset="1" style="stop-color: #000000"/>
              </radialGradient><radialGradient id="gradient-33" gradientUnits="objectBoundingBox" cx="0.5" cy="0.5" r="0.5">
                <stop offset="0" style="stop-color: #000000"/>
                <stop offset="1" style="stop-color: #000000"/>
              </radialGradient><radialGradient id="gradient-34" gradientUnits="objectBoundingBox" cx="0.5" cy="0.5" r="0.5">
                <stop offset="0" style="stop-color: #000000"/>
                <stop offset="1" style="stop-color: #000000"/>
              </radialGradient><radialGradient id="gradient-35" gradientUnits="objectBoundingBox" cx="0.5" cy="0.5" r="0.5">
                <stop offset="0" style="stop-color: #000000"/>
                <stop offset="1" style="stop-color: #000000"/>
              </radialGradient><radialGradient id="gradient-36" gradientUnits="objectBoundingBox" cx="0.5" cy="0.5" r="0.5">
                <stop offset="0" style="stop-color: #000000"/>
                <stop offset="1" style="stop-color: #000000"/>
              </radialGradient><radialGradient id="gradient-37" gradientUnits="objectBoundingBox" cx="0.9874003529548645" cy="-0.9515137076377869" r="0.5">
                <stop offset="0" style="stop-color: #000000"/>
                <stop offset="1" style="stop-color: #000000"/>
              </radialGradient><radialGradient id="gradient-38" gradientUnits="objectBoundingBox" cx="0.5" cy="0.5" r="0.5">
                <stop offset="0" style="stop-color: #000000"/>
                <stop offset="1" style="stop-color: #000000"/>
              </radialGradient><radialGradient id="gradient-39" gradientUnits="objectBoundingBox" cx="0.5" cy="0.5" r="0.5">
                <stop offset="0" style="stop-color: #000000"/>
                <stop offset="1" style="stop-color: #000000"/>
              </radialGradient><radialGradient id="gradient-40" gradientUnits="objectBoundingBox" cx="15.486014366149902" cy="-27.473567962646484" r="0.5" gradientTransform="matrix(12.190556012154218, 1.0471992480154313, -0.19849812586922155, 0.9915118541121046, -5.496034784397686, -0.519355551063768)">
                <stop offset="0" style="stop-color: #000000"/>
                <stop offset="1" style="stop-color: #000000"/>
              </radialGradient><radialGradient id="gradient-41" gradientUnits="objectBoundingBox" cx="0.5" cy="0.5" r="0.5">
                <stop offset="0" style="stop-color: #ffffff"/>
                <stop offset="1" style="stop-color: #cccccc"/>
              </radialGradient></defs><g transform="matrix(0.9999999017029956, 0, 0, 0.9999999017029956, -0.000027667021640809253, 0.000016427686801989694)"><g transform="matrix(0.9999998636289376, 0, 0, 0.9999998636289376, 0.0001307749699890337, 0.0000191582839761395)"><rect id="ee-background" x="0" y="0" style="fill: rgb(195, 195, 195); fill-opacity: 1; pointer-events: none;"/><g transform="matrix(2.2967703342437744, 0, 0, 2.2967703342437744, -44.305463790893555, -134.9423828125)"><g stroke-width="4.693" transform="matrix(0.9692328572273256, 0, 0, 0.9692328572273256, 20.072707514921603, -0.24260899424550075)"><path d="M 84.4 154.786 L 109.325 94.779 C 98.39 82.666 84.79 76.72999999999999 68.459 77.039 L 43.376000000000005 137.601 C 58.68900000000001 135.569 72.279 141.341 84.40100000000001 154.786 L 84.4 154.786 Z M 67.047 77.04 L 57.824999999999996 77.584 L 54.699999999999996 85.24300000000001 L 63.92099999999999 84.379 L 67.047 77.04 Z M 63.376999999999995 85.71700000000001 L 54.230999999999995 86.34100000000001 L 51.035 94.00000000000001 L 60.327 93.14000000000001 L 63.376999999999995 85.71700000000001 Z M 59.782 94.46900000000001 L 50.644999999999996 95.00900000000001 L 47.434999999999995 102.59700000000001 L 56.732 101.888 L 59.782 94.46900000000001 Z M 56.19199999999999 103.21600000000001 L 46.965999999999994 103.766 L 43.846000000000004 111.34400000000001 L 53.065999999999995 110.561 L 56.19199999999999 103.21600000000001 Z M 52.596999999999994 111.81 L 43.37599999999999 112.358 L 40.24599999999999 119.94200000000001 L 49.54199999999999 119.158 L 52.596999999999994 111.81 Z M 48.922999999999995 120.71600000000001 L 39.696999999999996 121.27000000000001 L 36.577 128.929 L 45.797 128.145 L 48.922999999999995 120.71600000000001 Z M 45.24399999999999 129.473 L 36.10199999999999 130.02700000000002 L 32.90199999999999 137.67600000000002 L 42.192999999999984 136.81300000000002 L 45.24399999999999 129.473 Z M 48.13999999999999 76.64600000000002 L 45.24399999999999 83.60500000000002 L 53.760999999999996 82.90100000000002 L 56.657 76.03100000000002 L 48.13999999999999 76.64600000000002 Z" style="fill: rgb(195, 195, 195); fill-opacity: 1;" transform="matrix(1, 0, 0, 1, 1.1368683772161603e-13, 3.3627934399157766)"/><path d="M 50.171 91.728 L 52.987 84.853 L 44.469 85.473 L 41.574 92.428 L 50.171 91.728 Z M 46.647 100.166 L 49.542 93.211 L 40.95 93.911 L 38.134 100.786 L 46.647 100.166 Z" fill="#f30" style="fill: rgb(224, 7, 7); fill-opacity: 1;" transform="matrix(1, 0, 0, 1, 1.1368683094535245e-13, 3.362793445587158)"/><path d="M 37.35 102.672 L 34.38 109.627 L 43.057 108.923 L 45.867000000000004 101.968 L 37.35 102.672 Z" style="fill: rgb(195, 195, 195); fill-opacity: 1;" transform="matrix(1, 0, 0, 1, 1.1368683772161603e-13, 3.3627934399157766)"/><path d="M 33.6 111.495 L 30.790000000000003 118.44500000000001 L 39.382000000000005 117.76 L 42.202000000000005 110.795 L 33.6 111.495 Z M 30.086000000000002 119.94200000000001 L 27.275000000000002 126.89200000000001 L 35.877 126.18800000000002 L 38.763000000000005 119.23300000000002 L 30.086000000000002 119.94200000000001 Z" fill="#02a5ff" style="fill: rgb(3, 112, 255); fill-opacity: 1;" transform="matrix(1, 0, 0, 1, 1.1368683772161603e-13, 3.3627934399157766)"/><path d="M 32.198 134.935 L 35.084 128.06 L 26.576000000000004 128.68 L 23.680000000000003 135.56 L 32.198 134.935 Z M 47.75 72.82 L 40.56 73.13499999999999 L 37.984 79.31099999999999 L 45.248000000000005 78.91199999999999 L 47.75 72.82 Z" style="fill: rgb(195, 195, 195); fill-opacity: 1;" transform="matrix(1, 0, 0, 1, 1.1368683772161603e-13, 3.3627934399157766)"/><path d="M 36.886 82.038 L 34.309000000000005 88.134 L 41.574000000000005 87.744 L 44.084 81.724 L 36.886 82.038 Z M 33.370000000000005 90.405 L 30.870000000000005 96.57600000000001 L 38.13400000000001 96.186 L 40.635000000000005 90.16600000000001 L 33.370000000000005 90.405 Z" fill="#f30" style="fill: rgb(224, 11, 11); fill-opacity: 1;" transform="matrix(1, 0, 0, 1, 1.1368683772161603e-13, 3.3627934399157766)"/><path d="M 36.966 98.918 L 29.701 99.14800000000001 L 27.2 105.32400000000001 L 34.474 104.93900000000001 L 36.966 98.918 Z" style="fill: rgb(195, 195, 195); fill-opacity: 1;" transform="matrix(1, 0, 0, 1, 1.1368683772161603e-13, 3.3627934399157766)"/><path d="M 26.027 108.064 L 23.450000000000003 114.235 L 30.794000000000004 113.85 L 33.291000000000004 107.75999999999999 L 26.027 108.064 Z M 22.582 116.502 L 20.081 122.518 L 27.271 122.213 L 29.847 116.11699999999999 L 22.582 116.502 Z" fill="#02a5ff" style="fill: rgb(18, 113, 255); fill-opacity: 1;" transform="matrix(1.0000000000000002, 0, 0, 1.0000000000000002, 1.1368683772161603e-13, 3.3627934455871547)"/><path d="M 23.68 130.96 L 26.181 124.86500000000001 L 18.991 125.17500000000001 L 16.416 131.256 L 23.68 130.96 Z M 33.37 70.55000000000001 L 31.577999999999996 74.92800000000001 L 37.355 74.68800000000002 L 39.232 70.24000000000001 L 33.37 70.55000000000001 Z" style="fill: rgb(195, 195, 195); fill-opacity: 1;" transform="matrix(1, 0, 0, 1, 1.1368683772161603e-13, 3.3627934399157766)"/><path d="M 29.701 79.381 L 27.904 83.755 L 33.685 83.53 L 35.562000000000005 79.072 L 29.701 79.381 Z M 26.181 87.749 L 24.384 92.127 L 30.25 91.967 L 32.118 87.359 L 26.181 87.749 Z" fill="#f30" style="fill: rgb(224, 11, 11); fill-opacity: 1;" transform="matrix(1, 0, 0, 1, 1.1368683772161603e-13, 3.3627934399157766)"/><path d="M 28.448 96.187 L 22.582 96.50099999999999 L 20.71 100.87899999999999 L 26.576 100.734 L 28.448 96.187 Z" style="fill: rgb(195, 195, 195); fill-opacity: 1;" transform="matrix(1, 0, 0, 1, 1.1368683772161603e-13, 3.3627934399157766)"/><path d="M 18.917 105.324 L 17.044 109.782 L 22.986 109.547 L 24.783 105.009 L 18.917 105.324 Z M 15.402000000000001 113.77 L 13.600000000000001 118.22399999999999 L 19.466 117.99 L 21.259 113.45599999999999 L 15.402000000000001 113.77 Z" fill="#02a5ff" style="fill: rgb(36, 101, 255); fill-opacity: 1;" transform="matrix(1.0000000000000002, 0, 0, 1.0000000000000002, 1.1368683772161603e-13, 3.7051938460490526)"/><path d="M 11.732 122.513 L 9.924999999999999 126.97200000000001 L 15.786999999999999 126.73700000000001 L 17.663999999999998 122.20800000000001 L 11.732 122.513 Z M 30.794 67.97800000000001 L 32.357 64.224 L 27.904 64.852 L 26.416 68.522 L 30.794 67.97800000000001 Z" style="fill: rgb(195, 195, 195); fill-opacity: 1;" transform="matrix(1, 0, 0, 1, 1.1368683772161603e-13, 3.3627934399157766)"/><path d="M 24.224 73.68 L 22.662 77.35900000000001 L 27.110999999999997 76.80900000000001 L 28.673 72.98500000000001 L 24.224 73.68 Z M 20.71 82.12700000000001 L 19.147000000000002 85.79700000000001 L 23.6 85.25200000000001 L 25.243000000000002 81.42800000000001 L 20.71 82.12700000000001 Z" fill="#f30" style="fill: rgb(224, 9, 9); fill-opacity: 1;" transform="matrix(1, 0, 0, 1, 1.1368683772161603e-13, 3.3627934399157766)"/><path d="M 17.115 90.87 L 15.551999999999998 94.549 L 19.926 93.99900000000001 L 21.567999999999998 90.16600000000001 L 17.115 90.87 Z" style="fill: rgb(195, 195, 195); fill-opacity: 1;" transform="matrix(1, 0, 0, 1, 1.1368683772161603e-13, 3.3627934399157766)"/><path d="M 13.445 99.706 L 11.967 103.37100000000001 L 16.336 102.831 L 17.903 99.08200000000001 L 13.445 99.706 Z M 9.925 108.14 L 8.447000000000001 111.81 L 12.817 111.265 L 14.379 107.435 L 9.925 108.14 Z" fill="#02a5ff" style="fill: rgb(23, 69, 255); fill-opacity: 1;" transform="matrix(1, 0, 0, 1, 1.1368683772161603e-13, 3.3627934399157766)"/><path d="M 6.256 116.891 L 4.848000000000001 120.491 L 9.226 120.012 L 10.789000000000001 116.187 L 6.256 116.891 Z M 22.582 60.31400000000001 L 21.493000000000002 62.81600000000001 L 24.843000000000004 62.73600000000001 L 26.023000000000003 60.000000000000014 L 22.582 60.31400000000001 Z" style="fill: rgb(195, 195, 195); fill-opacity: 1;" transform="matrix(1, 0, 0, 1, 1.1368683772161603e-13, 3.3627934399157766)"/><path d="M 18.992 69.067 L 17.899 71.64699999999999 L 21.184 71.567 L 22.272000000000002 68.83699999999999 L 18.992 69.067 Z M 15.477 77.425 L 14.459 80.005 L 17.659 80.005 L 18.753 77.27 L 15.477 77.425 Z" fill="#f30" style="fill: rgb(224, 0, 0); fill-opacity: 1;" transform="matrix(1, 0, 0, 1, 1.1368683772161603e-13, 3.3627934399157766)"/><path d="M 11.878 86.186 L 10.788 88.75800000000001 L 14.069 88.75800000000001 L 15.238000000000001 86.022 L 11.878 86.186 Z" style="fill: rgb(195, 195, 195); fill-opacity: 1;" transform="matrix(1, 0, 0, 1, 1.1368683772161603e-13, 3.3627934399157766)"/><path d="M 8.208 95.088 L 7.114 97.58999999999999 L 10.394 97.51499999999999 L 11.484 94.93799999999999 L 8.208 95.088 Z M 4.693 103.53 L 3.5989999999999993 106.107 L 6.8839999999999995 106.032 L 8.048 103.36699999999999 L 4.693 103.53 Z" fill="#02a5ff" style="fill: rgb(31, 64, 255); fill-opacity: 1;" transform="matrix(1, 0, 0, 1, 1.1368683772161603e-13, 3.3627934399157766)"/><path d="M 1.018 112.283 L 0 114.869 L 3.285 114.779 L 4.378 112.044 L 1.018 112.283 Z" style="fill: rgb(195, 195, 195); fill-opacity: 1;" transform="matrix(1, 0, 0, 1, 1.1368683772161603e-13, 3.3627934399157766)"/><path d="M 72.364 106.337 L 80.33200000000001 87.19500000000001 C 76.42800000000001 85.86200000000001 71.266 85.32300000000001 64.86500000000001 85.47300000000001 L 56.96600000000001 104.54500000000002 C 62.82800000000001 104.30500000000002 67.99000000000001 104.94300000000001 72.364 106.33700000000002 L 72.364 106.337 Z" fill="#f30" style="fill: rgb(224, 19, 16); fill-opacity: 1;" transform="matrix(1, 0, 0, 1, 1.1368683772161603e-13, 3.3627934399157766)"/><path d="M 98.695 96.341 C 95.101 92.66699999999999 90.877 90.091 86.03899999999999 88.523 L 77.90999999999998 108.14 L 83.37699999999998 110.407 C 85.47899999999998 111.261 87.90499999999999 112.988 90.71699999999998 115.64399999999999 L 98.695 96.341 Z" fill="#6c3" style="fill: rgb(27, 178, 57); fill-opacity: 1;" transform="matrix(1, 0, 0, 1, 1.1368683772161603e-13, 3.3627934399157766)"/><path d="M 88.38 121.12 C 84.78099999999999 117.516 80.487 115.09400000000001 75.564 113.77000000000001 L 67.75099999999999 132.598 C 72.279 134.16600000000003 76.50699999999999 136.74200000000002 80.571 140.17800000000003 L 88.38 121.12 Z" fill="#fc0" style="fill: rgb(236, 240, 0); fill-opacity: 1;" transform="matrix(1, 0, 0, 1, 1.1368683772161603e-13, 3.3627934399157766)"/><path d="M 62.359 130.566 L 69.933 112.283 C 65.165 110.72 60.01700000000001 110.096 54.54500000000001 110.486 L 46.81100000000001 129.013 C 51.42000000000001 128.764 56.577000000000005 129.323 62.35900000000001 130.566 L 62.359 130.566 Z" fill="#02a5ff" style="fill: rgb(0, 128, 255); fill-opacity: 1;" transform="matrix(1, 0, 0, 1, 1.1368683772161603e-13, 3.3627934399157766)"/><path d="M 90.394 149.638 C 89.769 150.262 89.46000000000001 150.966 89.46000000000001 151.82 C 89.46000000000001 152.684 89.77000000000001 153.303 90.394 153.927 C 90.938 154.56099999999998 91.717 154.791 92.50500000000001 154.791 C 93.36500000000001 154.791 94.06800000000001 154.561 94.69200000000001 153.927 C 95.242 153.303 95.552 152.679 95.552 151.82 C 95.552 150.96099999999998 95.242 150.262 94.69200000000001 149.638 C 94.063 149.089 93.364 148.775 92.50500000000001 148.775 C 91.71700000000001 148.775 90.933 149.085 90.394 149.638 Z M 102.05730200195313 175.25580627441406 C 102.05730200195313 174.55180627441405 90.30900000000001 150.492 90.77900000000001 150.03199999999998 C 91.248 149.54399999999998 91.87200000000001 149.32799999999997 92.501 149.32799999999997 C 93.205 149.32799999999997 93.833 149.54799999999997 94.223 150.03199999999998 C 94.767 150.492 94.997 151.12099999999998 94.997 151.82 C 94.997 152.524 101.01654986572265 166.68869519042968 100.47254986572266 167.15869519042968 C 100.07854986572265 167.62769519042968 93.205 154.322 92.501 154.322 C 91.87700000000001 154.322 91.248 154.082 90.778 153.618 C 90.31400000000001 153.148 102.05730200195313 175.95980627441406 102.05730200195313 175.25580627441406 Z" style="fill: rgb(195, 195, 195); fill-opacity: 1;" transform="matrix(1, 0, 0, 1, -263.0017752002968, 131.76128539737638)"/><path d="M 92.74 150.103 L 91.41199999999999 150.103 L 91.41199999999999 153.538 L 91.88199999999999 153.538 L 91.88199999999999 152.055 L 92.505 152.055 L 93.44399999999999 153.538 L 93.99399999999999 153.538 L 93.05399999999999 152.055 C 93.60399999999998 151.9 93.91399999999999 151.576 93.91399999999999 151.037 C 93.90799999999999 150.417 93.51899999999999 150.103 92.73999999999998 150.103 L 92.74 150.103 Z M 92.5 151.58100000000002 L 91.877 151.58100000000002 L 91.877 150.49200000000002 L 92.585 150.49200000000002 C 93.13499999999999 150.49200000000002 93.369 150.73200000000003 93.369 151.04200000000003 C 93.359 151.42600000000002 93.129 151.58100000000002 92.501 151.58100000000002 L 92.5 151.58100000000002 Z" style="fill: rgb(195, 195, 195); fill-opacity: 1;" transform="matrix(1, 0, 0, 1, -258.8354104446485, 124.99094266944796)"/><path style="fill-opacity: 1; stroke: rgb(0, 0, 0); stroke-opacity: 1; stroke-width: 0; paint-order: fill; fill: rgb(195, 195, 195);" d="M 111.2867660522461 170.53790283203125 C 111.2867660522461 170.53790283203125 94.62130737304688 168.97552490234375 95.14210510253906 168.97552490234375 C 95.66290283203125 168.97552490234375 98.78767395019531 182.51620483398438 98.78767395019531 182.51620483398438 C 98.78767395019531 182.51620483398438 94.90162646666447 210.77178410775701 104.36399841308594 207.4031524658203 C 114.960207973271 203.63087137064198 102.31354522705078 183.0021209716797 102.31354522705078 185.09075927734375 C 102.31354522705078 187.1793975830078 122.15558624267578 243.57257080078125 122.15558624267578 243.57257080078125 L 91.870361328125 162.11575317382812" transform="matrix(1, 0, 0, 1, -264.56416198366486, 4.1663647556482655)"/><path style="fill-opacity: 1; stroke: rgb(0, 0, 0); stroke-opacity: 1; stroke-width: 0; paint-order: fill; fill: rgb(195, 195, 195);" d="M 136.2849578857422 248.13644409179688 L 86.28858184814453 205.95201110839844 L 111.2867660522461 203.3480224609375 L 12.33560562133789 183.55780029296875 L 46.70811462402344 245.0116729736328 C 46.70811462402344 245.0116729736328 135.2433624267578 221.05508422851562 135.2433624267578 220.53428649902344 C 135.2433624267578 220.01348876953125 115.45313262939453 200.74404907226562 115.45313262939453 200.22325134277344 C 115.45313262939453 199.70245361328125 98.78768157958984 202.3064422607422 97.74608612060547 202.3064422607422" transform="matrix(1, 0, 0, 1, -123.2963272785754, 185.81620705160788)"/></g><g stroke-width="2.218" transform="matrix(0.9851077983136867, 0, 0, 0.9851077983136867, 7.045426174965364, 1.8585542011006335)"><path d="m474.552 143.255 6.048-2.126q3.752 8.037 12.625 8.037 8.609 0 12.935-6.974 4.37-6.974 4.503-18.923-5.916 10.461-17.791 10.461-8.388 0-14.082-5.486-5.695-5.528-5.695-13.65 0-8.249 5.96-14.117 6.003-5.868 15.274-5.868 11.345 0 17.393 7.696 6.048 7.655 6.048 21.092 0 14.118-6.4 22.877-6.402 8.718-18.233 8.718-13.818 0-18.585-11.737zm19.998-15.35q6.224 0 10.418-4.168 4.238-4.21 4.238-9.823 0-5.443-4.017-9.355-3.973-3.912-10.507-3.912-6.622 0-10.463 4.04-3.84 3.997-3.84 9.78 0 6.208 4.238 9.823 4.282 3.614 9.933 3.614z" style="fill: rgb(195, 195, 195); fill-opacity: 1;"/><path d="m554.363 95.8-.618 6.25h-29.622l-1.28 18.838q6.71-6.336 14.745-6.336 8.476 0 14.612 5.656 6.18 5.655 6.18 14.457 0 8.93-6.71 14.628-6.666 5.699-16.334 5.699-7.593 0-13.508-3.828-5.916-3.827-7.77-9.907l6.445-2.127q3.974 10.121 14.922 10.121 7.195 0 11.433-4.082 4.238-4.125 4.238-10.504 0-6.676-4.193-10.418-4.194-3.742-10.066-3.742-8.564 0-14.17 7.91l-5.96-1.234 1.942-31.382z" style="fill: rgb(195, 195, 195); fill-opacity: 1;"/></g><g stroke-width="2.984" transform="matrix(1, 0, 0, 1, -6.2659092159752845, -4.17727281065018)"><path d="m218.712 96.046h-14.37l-8.611 33.737-8.53-33.737h-14.836l-7.993 34.143-8.453-34.143h-17.76l16.148 58.415h16.14l7.993-33.238 8.223 33.235h15.835z" style="fill: rgb(195, 195, 195);"/><path d="m215.024 107.73h17.753v-11.687h-17.753zm17.75 3.455h-17.753v43.273h17.753zm18.529 16.7c0-1.972.382-3.455 1.232-4.523.845-1.16 2-1.65 3.533-1.65 1.462 0 2.462.49 3.15 1.483.696.987.998 2.55.998 4.604v26.657h17.141v-28.468c0-5.592-1.149-9.623-3.458-12.177-2.306-2.551-5.997-3.79-10.99-3.79-2.92 0-5.531.66-7.685 1.895-2.155 1.155-3.846 2.96-5.153 5.428v-6.168h-15.91v43.277h17.142z" style="fill: rgb(195, 195, 195);"/><path d="m322.71 96.046h-17.22v18.836c-1.384-1.638-2.998-2.876-4.77-3.616-1.686-.82-3.607-1.236-5.914-1.236-5.454 0-9.837 2.062-13.143 6.257-3.232 4.115-4.918 9.626-4.918 16.62s1.612 12.588 4.766 16.703c3.15 4.028 7.453 6.003 12.91 6.003 2.614 0 4.914-.495 6.92-1.56 1.993-1.155 3.684-2.8 5.066-5.025l.078 5.43h16.215v-58.412zm-22.444 24.848c1.77 0 3.157.493 3.996 1.394.85 1.074 1.232 2.387 1.232 4.117v12.341c0 1.644-.382 3.043-1.388 4.034-.922 1.071-2.07 1.638-3.532 1.638-1.996 0-3.38-.898-4.3-2.71-.922-1.73-1.384-4.522-1.384-8.556 0-4.193.462-7.323 1.384-9.214.842-1.978 2.22-3.044 3.992-3.044z" style="fill: rgb(195, 195, 195);"/><path d="m363.525 116.287c-4.46-4.117-10.303-6.257-17.527-6.257-7.301 0-13.069 2.14-17.604 6.257-4.458 4.196-6.686 9.707-6.686 16.536 0 6.833 2.228 12.341 6.764 16.536 4.454 4.201 10.225 6.254 17.523 6.254 7.227 0 13.066-2.053 17.527-6.254 4.455-4.195 6.686-9.703 6.686-16.536.006-6.83-2.226-12.343-6.683-16.536zm-23.518 16.536c0-4.117.456-7.077 1.378-9.05.928-1.894 2.543-2.879 4.616-2.879 2.07 0 3.533.985 4.536 2.88.927 1.972 1.459 4.935 1.459 9.05 0 4.11-.535 7.077-1.46 9.052-1.002 1.889-2.461 2.88-4.535 2.88-2.073 0-3.688-.991-4.616-2.88-.922-1.811-1.378-4.86-1.378-9.053z" style="fill: rgb(195, 195, 195);"/><path d="m429.934 111.185h-12.072l-6.377 21.8-5.612-21.8h-12.988l-5.457 21.224-6.225-21.224h-17.067l14.293 43.273h12.531l6.153-24.189 5.994 24.19h12.681z" style="fill: rgb(195, 195, 195); fill-opacity: 1;"/><path d="m430.396 113.978c-3.768 2.718-5.69 6.421-5.69 10.864 0 1.892.463 3.703 1.307 5.347.922 1.73 2.158 3.13 3.691 4.198 2.54 1.966 6.761 3.371 12.833 4.443l4.688.659c3.61.415 5.457 1.31 5.457 2.635 0 .82-.54 1.644-1.692 2.052-1.154.582-2.685.827-4.607.827-2.846 0-5.156-.415-6.692-1.235-1.614-.82-2.686-2.056-3.073-3.62l-14.069 1.644c1.233 4.44 3.769 7.734 7.767 10.04 3.92 2.301 9.065 3.456 15.37 3.456 6.766 0 12.227-1.486 16.371-4.365 4.153-2.802 6.23-6.505 6.23-11.109 0-1.73-.388-3.46-1.08-5.105-.615-1.48-1.614-2.796-2.999-4.031-2.151-1.808-5.994-3.21-11.529-4.198l-5.994-.907c-4.536-.573-6.917-1.56-6.917-2.96 0-.904.463-1.564 1.31-2.053.845-.415 2.071-.66 3.685-.66 2.155 0 3.918.329 5.156.991 1.23.576 2.3 1.48 3.073 2.8l13.451-2.224c-1.54-3.706-4.076-6.588-7.611-8.64-3.462-1.97-7.913-2.958-13.221-2.958-6.38 0-11.368 1.4-15.215 4.109z" style="fill: rgb(195, 195, 195);"/></g><path d="m468.55 110.007c-.612-.66-1.307-.904-2.155-.904s-1.617.244-2.225.904c-.543.66-.848 1.393-.848 2.384 0 .904.308 1.647.848 2.223.608.66 1.378.907 2.225.907s1.537-.248 2.155-.907c.543-.573.847-1.316.847-2.223.003-.988-.304-1.722-.847-2.384zm-.46.412c.46.495.692 1.154.692 1.972 0 .737-.23 1.319-.692 1.895-.46.495-.996.742-1.686.742-.695 0-1.306-.247-1.769-.742-.54-.576-.773-1.155-.773-1.895 0-.818.233-1.48.773-1.972.463-.582 1.074-.827 1.77-.827.686 0 1.223.245 1.685.827z" style="fill: rgb(195, 195, 195);" transform="matrix(-10.517487746314181, 0, 0, -10.517487746314181, 5646.467057152586, 1584.2661274464317)"/><path d="m467.783 111.573c0-.746-.385-1.074-1.23-1.074h-1.38v3.703h.536v-1.644h.618l.922 1.644h.612l-.997-1.644c.615-.084.919-.412.919-.985zm-.615-.086c0 .412-.232.66-.767.66h-.695v-1.153h.695c.535 0 .767.165.767.493z" style="fill: rgb(195, 195, 195);" transform="matrix(-46.00949478149414, 0, 0, -46.00949478149414, 22248.722838184134, 5643.06540755636)"/><g stroke="#000" transform="matrix(1, 0, 0, 1, 571.2420568774404, -65.79204648735396)"><path d="m145.411 96.046v-32.633h-5.788l-10.003 27.465-10.16-27.465h-5.789v32.633h3.417v-29.196l10.71 29.195h2.861l10.874-28.922v28.922zm7.542-29.014h3.568v-3.624h-3.568zm0 29.014h3.568v-24.12h-3.568zm19.68-21.762c1.511 0 2.776.545 3.726 1.631 1.112 1.092 1.747 2.636 1.984 4.442l3.41-.545c-.398-2.625-1.432-4.808-2.938-6.347-1.585-1.451-3.569-2.27-5.873-2.27-3.337 0-5.946 1.18-7.94 3.537-1.984 2.455-3.017 5.445-3.017 9.249 0 3.896.876 6.98 2.776 9.25 1.9 2.357 4.445 3.54 7.615 3.54 2.461 0 4.529-.725 6.187-2.264 1.585-1.452 2.698-3.541 3.175-6.172l-3.332-.633c-.32 1.905-1.034 3.444-2.068 4.437-1.113.999-2.383 1.452-3.884 1.452-1.983 0-3.574-.819-4.844-2.636-1.186-1.719-1.742-4.076-1.742-6.98 0-2.897.556-5.254 1.826-7.071 1.286-1.71 2.955-2.62 4.939-2.62zm26.182-2.996-1.27-.092c-1.742 0-3.17.545-4.282 1.544-1.192.906-2.147 2.45-2.855 4.534v-5.353h-3.495v24.12h3.652v-12.153c0-2.717.714-4.89 2.068-6.531 1.349-1.627 3.175-2.45 5.636-2.45h.551zm20.399 21.937c2.068-2.357 3.018-5.435 3.018-9.25 0-3.803-.95-6.886-3.018-9.249-1.983-2.352-4.602-3.536-8.008-3.536-3.254 0-5.873 1.18-7.94 3.536-1.984 2.363-3.018 5.446-3.018 9.25 0 3.809 1.034 6.892 3.018 9.25 2.067 2.356 4.676 3.54 7.94 3.54 3.327 0 5.935-1.173 8.008-3.54zm-8.013-18.941c2.22 0 3.888.818 5.074 2.625 1.35 1.724 1.984 4.081 1.984 7.072 0 3-.635 5.348-1.984 7.165-1.19 1.719-2.933 2.625-5.074 2.625-2.147 0-3.81-.906-5.086-2.625-1.265-1.72-1.905-4.077-1.905-7.165 0-3.078.635-5.435 1.832-7.072 1.27-1.807 3.012-2.625 5.159-2.625zm23.962 7.525c-3.569-.813-5.4-1.997-5.4-3.716 0-1.179.399-2.09 1.349-2.805.876-.644 2.14-1.004 3.652-1.004 1.506 0 2.782.36 3.653 1.004.944.627 1.585 1.631 1.978 2.805l3.333-.726c-.551-1.997-1.659-3.536-3.17-4.53-1.506-1.086-3.416-1.636-5.642-1.636-2.618 0-4.76.725-6.344 2.09-1.585 1.353-2.462 3.077-2.462 5.255 0 1.811.556 3.263 1.664 4.261 1.186 1.004 3.254 1.905 6.193 2.533l1.27.273c3.81.993 5.715 2.357 5.715 4.076 0 1.179-.478 2.177-1.512 2.903-1.034.813-2.388 1.174-3.973 1.174-1.747 0-3.17-.36-4.44-1.174-1.185-.906-2.067-1.997-2.534-3.449l-3.254.644c.551 2.172 1.748 3.896 3.49 5.075 1.832 1.26 4.046 1.9 6.749 1.9 2.776 0 4.996-.727 6.744-2.173 1.669-1.359 2.618-3.268 2.618-5.353 0-1.812-.64-3.263-1.831-4.262-1.113-1.09-3.018-1.997-5.715-2.712zm15.713-7.077c-2.068 2.27-3.102 5.445-3.102 9.249 0 3.809 1.034 6.892 3.102 9.25 1.983 2.357 4.602 3.535 7.935 3.535 3.253 0 5.95-1.178 8.019-3.536 1.973-2.357 3.012-5.435 3.012-9.25 0-3.803-1.034-6.886-3.012-9.248-1.984-2.353-4.687-3.536-8.02-3.536s-5.95 1.183-7.934 3.536zm2.776 16.414c-1.27-1.812-1.905-4.17-1.905-7.165 0-2.99.635-5.348 1.905-7.072 1.196-1.812 2.939-2.625 5.159-2.625 2.146 0 3.81.818 5.158 2.625 1.187 1.724 1.9 4.081 1.9 7.072 0 3-.713 5.348-1.983 7.165-1.27 1.719-2.94 2.625-5.075 2.625-2.22.005-3.89-.901-5.16-2.625zm26.266-19.22c0-.18 0-.272-.078-.447v-.448c0-1.724.398-3.083 1.112-3.809.635-.818 1.748-1.271 3.254-1.271l3.018.365v-3l-3.653-.36c-2.456 0-4.283.725-5.474 2.176-1.196 1.354-1.831 3.629-1.831 6.62v.18h-4.367v2.635h4.367v21.483h3.647v-21.483h5.873v-2.635h-5.868z" style="fill: rgb(195, 195, 195);"/><path d="m293.563 71.926v-6.068l-3.726.355v5.708h-4.209v2.636h4.209v12.512c0 2.358.074 3.897.315 4.808.079.725.32 1.446.714 1.991.713 1.004 1.585 1.725 2.618 2.178.877.447 2.147.725 3.732.725l3.017-.36v-3.083l-2.54.273c-1.59 0-2.692-.36-3.253-1.174-.64-.818-.877-2.542-.877-5.162v-12.693h5.794v-2.635h-5.794z" style="fill: rgb(195, 195, 195);"/></g><path d="m301.902 69.574c-.64.726-.955 1.534-.955 2.533 0 1.003.315 1.724.955 2.45.557.725 1.344.993 2.141.993.877 0 1.59-.268 2.22-.993.557-.726.872-1.452.872-2.45s-.32-1.812-.872-2.533c-.635-.638-1.348-.998-2.22-.998-.792 0-1.59.36-2.14.998zm-.32 2.538c0-.819.236-1.54.714-2.085a2.33 2.33 0 0 1 1.747-.808c.714 0 1.35.268 1.748.808.551.546.787 1.266.787 2.085 0 .813-.236 1.539-.787 2.08-.399.54-1.04.818-1.748.818-.635 0-1.27-.278-1.747-.819-.472-.54-.714-1.266-.714-2.08z" stroke-width="5.197" style="fill: rgb(195, 195, 195);" transform="matrix(-9.998032569885254, 0, 0, -9.998032569885254, 3878.109278450358, 736.9126068775583)"/><path d="m304.274 70.11h-1.343v3.989h.472v-1.725h.635l.95 1.725h.556l-.95-1.725c.557-.18.877-.545.877-1.178 0-.716-.399-1.086-1.197-1.086zm-.236 1.724h-.635v-1.271h.714c.556 0 .798.272.798.627.005.464-.231.644-.877.644z" stroke-width="5.197" style="fill: rgb(195, 195, 195);" transform="matrix(17.469263076782227, 0, 0, 17.469263076782227, -4455.835615102725, -1246.9581213593258)"/></g></g></g></svg>